<svg width="32" height="32" viewBox="0 0 32 32" fill="none" xmlns="http://www.w3.org/2000/svg">
<path d="M24.6665 6.38672C21.1998 12.4534 14.5198 15.9334 7.5598 15.3067L3.33313 14.9201" stroke="white" stroke-opacity="0.87" stroke-width="1.5" stroke-miterlimit="10" stroke-linecap="round" stroke-linejoin="round"/>
<path d="M7.33313 25.8264C10.7998 19.7597 17.4798 16.2797 24.4398 16.9064L28.6665 17.2931" stroke="white" stroke-opacity="0.87" stroke-width="1.5" stroke-miterlimit="10" stroke-linecap="round" stroke-linejoin="round"/>
<path d="M16.0002 29.3332C23.364 29.3332 29.3335 23.3637 29.3335 15.9999C29.3335 8.6361 23.364 2.66656 16.0002 2.66656C8.63641 2.66656 2.66687 8.6361 2.66687 15.9999C2.66687 23.3637 8.63641 29.3332 16.0002 29.3332Z" stroke="white" stroke-opacity="0.87" stroke-width="1.5" stroke-miterlimit="10" stroke-linecap="round" stroke-linejoin="round"/>
<path d="M10.173 4L14.413 9.26667C17.253 12.7867 19.2663 16.88 20.333 21.2667L21.9463 27.92" stroke="white" stroke-opacity="0.87" stroke-width="1.5" stroke-miterlimit="10" stroke-linecap="round" stroke-linejoin="round"/>
</svg>
