<svg width="64" height="64" viewBox="0 0 64 64" fill="none" xmlns="http://www.w3.org/2000/svg">
<path d="M0 0H56C60.4183 0 64 3.58172 64 8V64H0V0Z" fill="url(#paint0_linear_206_1604)" fill-opacity="0.24"/>
<path fill-rule="evenodd" clip-rule="evenodd" d="M28.328 37.7871C21.6788 37.7871 16 38.8033 16 42.8752C16 46.9453 21.6425 48 28.328 48C34.9773 48 40.6561 46.982 40.6561 42.9119C40.6561 38.8418 35.0136 37.7871 28.328 37.7871Z" stroke="url(#paint1_linear_206_1604)" stroke-width="1.5" stroke-linecap="round" stroke-linejoin="round"/>
<path opacity="0.4" fill-rule="evenodd" clip-rule="evenodd" d="M28.3281 31.9796C32.7148 31.9796 36.2297 28.4237 36.2297 23.9898C36.2297 19.5541 32.7148 16 28.3281 16C23.9431 16 20.4265 19.5541 20.4265 23.9898C20.4265 28.4237 23.9431 31.9796 28.3281 31.9796Z" stroke="url(#paint2_linear_206_1604)" stroke-width="1.5" stroke-linecap="round" stroke-linejoin="round"/>
<path d="M44.461 26.3531V33.367" stroke="url(#paint3_linear_206_1604)" stroke-width="1.5" stroke-linecap="round" stroke-linejoin="round"/>
<path d="M48 29.8599H40.9252" stroke="url(#paint4_linear_206_1604)" stroke-width="1.5" stroke-linecap="round" stroke-linejoin="round"/>
<path d="M0.5 4C0.5 2.067 2.067 0.5 4 0.5H56C60.1421 0.5 63.5 3.85786 63.5 8V60C63.5 61.933 61.933 63.5 60 63.5H4C2.067 63.5 0.5 61.933 0.5 60V4Z" stroke="url(#paint5_linear_206_1604)"/>
<defs>
<linearGradient id="paint0_linear_206_1604" x1="-0.666667" y1="51.2" x2="54.749" y2="51.0809" gradientUnits="userSpaceOnUse">
<stop stop-color="#28CD41"/>
<stop offset="1" stop-color="#D9ED92"/>
</linearGradient>
<linearGradient id="paint1_linear_206_1604" x1="15.7432" y1="45.9574" x2="37.0916" y2="45.8466" gradientUnits="userSpaceOnUse">
<stop stop-color="#28CD41"/>
<stop offset="1" stop-color="#D9ED92"/>
</linearGradient>
<linearGradient id="paint2_linear_206_1604" x1="20.2619" y1="28.7837" x2="33.9454" y2="28.7546" gradientUnits="userSpaceOnUse">
<stop stop-color="#28CD41"/>
<stop offset="1" stop-color="#D9ED92"/>
</linearGradient>
<linearGradient id="paint3_linear_206_1604" x1="43.5781" y1="31.9642" x2="45.0759" y2="31.9634" gradientUnits="userSpaceOnUse">
<stop stop-color="#28CD41"/>
<stop offset="1" stop-color="#D9ED92"/>
</linearGradient>
<linearGradient id="paint4_linear_206_1604" x1="40.8515" y1="30.3846" x2="46.9769" y2="30.3314" gradientUnits="userSpaceOnUse">
<stop stop-color="#28CD41"/>
<stop offset="1" stop-color="#D9ED92"/>
</linearGradient>
<linearGradient id="paint5_linear_206_1604" x1="-0.666667" y1="51.2" x2="54.749" y2="51.0809" gradientUnits="userSpaceOnUse">
<stop stop-color="#28CD41"/>
<stop offset="1" stop-color="#D9ED92"/>
</linearGradient>
</defs>
</svg>
