<svg width="16" height="16" viewBox="0 0 16 16" fill="none" xmlns="http://www.w3.org/2000/svg">
<mask id="mask0_238_1554" style="mask-type:alpha" maskUnits="userSpaceOnUse" x="0" y="9" width="12" height="7">
<path fill-rule="evenodd" clip-rule="evenodd" d="M0 9.93896H11.9379V15.5002H0V9.93896Z" fill="white"/>
</mask>
<g mask="url(#mask0_238_1554)">
<path fill-rule="evenodd" clip-rule="evenodd" d="M5.96896 11.0756C2.76283 11.0756 1.13666 11.6265 1.13666 12.7116C1.13666 13.8074 2.76283 14.3636 5.96896 14.3636C9.17509 14.3636 10.8013 13.8127 10.8013 12.7283C10.8013 11.6311 9.17509 11.0756 5.96896 11.0756ZM5.96896 15.5002C4.49282 15.5002 0 15.5002 0 12.7116C0 10.2262 3.40618 9.93896 5.96896 9.93896C7.4451 9.93896 11.9379 9.93896 11.9379 12.7283C11.9379 15.2131 8.53174 15.5002 5.96896 15.5002Z" fill="black"/>
</g>
<path fill-rule="evenodd" clip-rule="evenodd" d="M5.96898 1.63666C4.37462 1.63666 3.07656 2.93472 3.07656 4.52983C3.07353 5.30199 3.37058 6.02567 3.91238 6.57202C4.45495 7.11761 5.17786 7.41996 5.94776 7.423L5.96898 7.99132V7.423C7.56408 7.423 8.86214 6.12493 8.86214 4.52983C8.86214 2.93472 7.56408 1.63666 5.96898 1.63666ZM5.96897 8.55965H5.94548C4.87021 8.55586 3.86237 8.13378 3.10687 7.37298C2.35062 6.61142 1.93612 5.60056 1.93991 4.52755C1.93991 2.30804 3.74719 0.5 5.96897 0.5C8.19152 0.5 9.9988 2.30804 9.9988 4.52983C9.9988 6.75161 8.19152 8.55965 5.96897 8.55965Z" fill="black"/>
<path fill-rule="evenodd" clip-rule="evenodd" d="M13.0368 9.16118C12.7231 9.16118 12.4684 8.90657 12.4684 8.59285V5.55344C12.4684 5.23972 12.7231 4.98511 13.0368 4.98511C13.3505 4.98511 13.6051 5.23972 13.6051 5.55344V8.59285C13.6051 8.90657 13.3505 9.16118 13.0368 9.16118Z" fill="black"/>
<path fill-rule="evenodd" clip-rule="evenodd" d="M14.5871 7.64105H11.4878C11.1741 7.64105 10.9195 7.38644 10.9195 7.07272C10.9195 6.75901 11.1741 6.50439 11.4878 6.50439H14.5871C14.9008 6.50439 15.1554 6.75901 15.1554 7.07272C15.1554 7.38644 14.9008 7.64105 14.5871 7.64105Z" fill="black"/>
</svg>
