<svg width="33" height="32" viewBox="0 0 33 32" fill="none" xmlns="http://www.w3.org/2000/svg">
<path d="M3.16684 16H12.5002C14.7668 16 16.5002 17.7333 16.5002 20C16.5002 22.2667 14.7668 24 12.5002 24H4.50017C3.70017 24 3.16684 23.4667 3.16684 22.6667V9.33333C3.16684 8.53333 3.70017 8 4.50017 8H11.1668C13.4335 8 15.1668 9.73333 15.1668 12C15.1668 14.2667 13.4335 16 11.1668 16H3.16684Z" stroke="white" stroke-opacity="0.87" stroke-width="1.5" stroke-miterlimit="10"/>
<path d="M19.1669 18.6668H29.8335C29.8335 15.7334 27.4335 13.3334 24.5002 13.3334C21.5669 13.3334 19.1669 15.7334 19.1669 18.6668ZM19.1669 18.6668C19.1669 21.6001 21.5669 24.0001 24.5002 24.0001H26.7669" stroke="white" stroke-opacity="0.87" stroke-width="1.5" stroke-miterlimit="10" stroke-linecap="round" stroke-linejoin="round"/>
<path d="M26.5 10H22.5" stroke="white" stroke-opacity="0.87" stroke-width="1.5" stroke-miterlimit="10" stroke-linecap="round" stroke-linejoin="round"/>
</svg>
