<svg width="11" height="16" viewBox="0 0 11 16" fill="none" xmlns="http://www.w3.org/2000/svg">
<path d="M5.19234 13.1562C6.75416 13.1562 8.0245 11.8947 8.0245 10.3436C8.0245 10.0847 7.81327 9.87489 7.55248 9.87489C7.29168 9.87489 7.08045 10.0847 7.08045 10.3436C7.08045 11.3778 6.23316 12.2187 5.19234 12.2187C4.93154 12.2187 4.72031 12.4285 4.72031 12.6874C4.72031 12.9464 4.93154 13.1562 5.19234 13.1562ZM7.55071 2.04749C7.55071 1.9552 7.52327 1.86526 7.47164 1.7885L6.74855 0.709183C6.66093 0.578516 6.51342 0.499999 6.35559 0.499999L4.02938 0.5C3.87125 0.5 3.72374 0.578517 3.63641 0.709183L2.91333 1.7885C2.86199 1.86526 2.83456 1.9555 2.83426 2.04749L2.83279 3.31256L7.55189 3.31255L7.55071 2.04749ZM5.19234 15.5C8.20978 15.5 10.3846 13.0692 10.3846 10.3436C10.3846 9.04372 9.89934 7.85776 9.09955 6.95159C8.60864 6.39523 7.83864 5.2289 7.55307 4.25154L7.55307 4.24978L6.13698 4.24978L6.13698 4.2533C6.13728 4.39304 6.15822 4.53191 6.20041 4.66551C6.36533 5.1873 6.87364 6.56311 8.03453 7.87856C8.6405 8.565 8.96443 9.43572 8.96708 10.3436C8.97299 12.5011 7.20672 14.0937 5.19234 14.0937C3.1101 14.0937 1.41611 12.4115 1.41611 10.3436C1.41611 9.43631 1.74771 8.5609 2.34984 7.87856C3.50366 6.5716 4.01433 5.19872 4.1819 4.67166C4.22515 4.53615 4.24724 4.39486 4.2474 4.25271L4.2474 4.24978L2.83131 4.24978L2.83131 4.25125C2.54573 5.2289 1.77574 6.39523 1.28483 6.9513C0.485333 7.85776 2.99532e-05 9.04372 3.00668e-05 10.3436C3.03158e-05 13.1914 2.32477 15.5 5.19234 15.5Z" fill="url(#paint0_linear_230_1543)"/>
<defs>
<linearGradient id="paint0_linear_230_1543" x1="10.4928" y1="3.5" x2="1.50108" y2="3.51338" gradientUnits="userSpaceOnUse">
<stop stop-color="#28CD41"/>
<stop offset="1" stop-color="#D9ED92"/>
</linearGradient>
</defs>
</svg>
