<svg width="50" height="64" viewBox="0 0 50 64" fill="none" xmlns="http://www.w3.org/2000/svg">
<path d="M8.26786 4.17602C8.97464 3.74387 9.19726 2.82058 8.76511 2.11381C8.33296 1.40703 7.40967 1.1844 6.70289 1.61656L8.26786 4.17602ZM8.94197 27.7985L9.7348 26.5251L8.94197 27.7985ZM47.3726 13.1618L48.7856 13.6652L47.3726 13.1618ZM46.8675 4.9858L48.053 4.06675L46.8675 4.9858ZM39.2395 2.15709L38.5442 0.828011L38.5442 0.828011L39.2395 2.15709ZM30.4714 13.6874L31.849 14.2809L30.4714 13.6874ZM23.4268 44.4469L21.9432 44.2263L23.4268 44.4469ZM20.3431 63.196L31.305 49.7856L14.2104 46.9975L20.3431 63.196ZM6.70289 1.61656C2.02843 4.47472 0.339186 10.1447 0.741824 15.4546C1.14504 20.7722 3.67251 26.2846 8.14915 29.0718L9.7348 26.5251C6.30212 24.3878 4.08775 19.9031 3.73323 15.2278C3.37814 10.5448 4.91526 6.22594 8.26786 4.17602L6.70289 1.61656ZM8.14915 29.0718C14.8935 33.271 23.8935 32.7246 31.6237 29.6243C39.3542 26.5238 46.2845 20.6861 48.7856 13.6652L45.9595 12.6584C43.8413 18.6048 37.7433 23.9376 30.507 26.8399C23.2703 29.7422 15.3647 30.0304 9.7348 26.5251L8.14915 29.0718ZM48.7856 13.6652C49.8207 10.7595 50.4786 7.19549 48.053 4.06675L45.6821 5.90486C47.1169 7.75559 46.9149 9.97655 45.9595 12.6584L48.7856 13.6652ZM48.053 4.06675C47.0865 2.82012 45.7095 1.56215 44.0997 0.821367C42.4615 0.0674911 40.4796 -0.184637 38.5442 0.828011L39.9349 3.48616C40.8352 3.01512 41.8082 3.06928 42.8456 3.54665C43.9114 4.03711 44.9304 4.93534 45.6821 5.90486L48.053 4.06675ZM38.5442 0.828011C36.1803 2.06479 34.2566 4.15562 32.73 6.36076C31.1931 8.58058 29.9861 11.0227 29.0938 13.094L31.849 14.2809C32.6985 12.3089 33.815 10.0639 35.1965 8.06842C36.5882 6.05826 38.1777 4.40556 39.9349 3.48616L38.5442 0.828011ZM29.0938 13.094C24.8764 22.8835 23.4548 34.0616 21.9432 44.2263L24.9105 44.6676C26.4436 34.3589 27.8211 23.6307 31.849 14.2809L29.0938 13.094ZM21.9432 44.2263C21.6776 46.0117 21.3667 47.8016 21.0404 49.6041L23.9924 50.1385C24.3208 48.3247 24.6382 46.499 24.9105 44.6676L21.9432 44.2263Z" fill="url(#paint0_linear_230_1551)" fill-opacity="0.87"/>
<defs>
<linearGradient id="paint0_linear_230_1551" x1="-8.32415" y1="17.5581" x2="23.5728" y2="49.3365" gradientUnits="userSpaceOnUse">
<stop stop-color="#EF476F"/>
<stop offset="0.527324" stop-color="#FFD166"/>
<stop offset="1" stop-color="#06D6A0"/>
</linearGradient>
</defs>
</svg>
