<svg width="57" height="56" viewBox="0 0 57 56" fill="none" xmlns="http://www.w3.org/2000/svg">
<path d="M44.1444 11.1768C38.0777 21.7934 26.3877 27.8834 14.2077 26.7868L6.81108 26.1101" stroke="white" stroke-opacity="0.87" stroke-width="1.5" stroke-miterlimit="10" stroke-linecap="round" stroke-linejoin="round"/>
<path d="M13.8111 45.1962C19.8777 34.5795 31.5677 28.4895 43.7477 29.5862L51.1444 30.2629" stroke="white" stroke-opacity="0.87" stroke-width="1.5" stroke-miterlimit="10" stroke-linecap="round" stroke-linejoin="round"/>
<path d="M28.9777 51.3334C41.8644 51.3334 52.3111 40.8867 52.3111 28C52.3111 15.1134 41.8644 4.66669 28.9777 4.66669C16.0911 4.66669 5.64441 15.1134 5.64441 28C5.64441 40.8867 16.0911 51.3334 28.9777 51.3334Z" stroke="white" stroke-opacity="0.87" stroke-width="1.5" stroke-miterlimit="10" stroke-linecap="round" stroke-linejoin="round"/>
<path d="M18.7808 7L26.2008 16.2167C31.1708 22.3767 34.6941 29.54 36.5608 37.2167L39.3841 48.86" stroke="white" stroke-opacity="0.87" stroke-width="1.5" stroke-miterlimit="10" stroke-linecap="round" stroke-linejoin="round"/>
</svg>
