<svg width="32" height="32" viewBox="0 0 32 32" fill="none" xmlns="http://www.w3.org/2000/svg">
<path d="M15.9997 2.66656H11.5997C9.06641 2.66656 7.06641 4.66657 7.06641 7.06656C7.06641 9.46656 9.06641 11.4666 11.4664 11.4666H15.9997V2.66656Z" stroke="white" stroke-opacity="0.87" stroke-width="1.5" stroke-miterlimit="10"/>
<path d="M16.0003 11.6002H11.6003C9.20032 11.6002 7.20032 13.6002 7.20032 16.0002C7.20032 18.4002 9.20032 20.4002 11.6003 20.4002H16.0003V11.6002Z" stroke="white" stroke-opacity="0.87" stroke-width="1.5" stroke-miterlimit="10"/>
<path d="M16.0003 20.3998H11.6003C9.20032 20.3998 7.20032 22.3998 7.20032 24.7998C7.20032 27.1998 9.20032 29.1998 11.6003 29.1998C14.0003 29.1998 16.0003 27.1998 16.0003 24.7998V20.3998Z" stroke="white" stroke-opacity="0.87" stroke-width="1.5" stroke-miterlimit="10"/>
<path d="M16 2.66656H20.4C22.8 2.66656 24.8 4.66657 24.8 7.06656C24.8 9.46656 22.8 11.4666 20.4 11.4666H16V2.66656Z" stroke="white" stroke-opacity="0.87" stroke-width="1.5" stroke-miterlimit="10"/>
<path d="M20.4 11.6002C22.8 11.6002 24.8 13.6002 24.8 16.0002C24.8 18.4002 22.8 20.4002 20.4 20.4002C18 20.4002 16 18.4002 16 16.0002C16 13.6002 18 11.6002 20.4 11.6002Z" stroke="white" stroke-opacity="0.87" stroke-width="1.5" stroke-miterlimit="10"/>
</svg>
