<svg width="32" height="32" viewBox="0 0 32 32" fill="none" xmlns="http://www.w3.org/2000/svg">
<path d="M28.8003 13.5999H16.2669V18.5332H23.6003C23.4669 19.7332 22.6669 21.5999 20.9336 22.7999C19.8669 23.5999 18.2669 24.1332 16.2669 24.1332C12.8003 24.1332 9.73359 21.8666 8.66693 18.5332C8.40026 17.7332 8.26693 16.7999 8.26693 15.8666C8.26693 14.9332 8.40026 13.9999 8.66693 13.1999C8.80026 12.9332 8.80026 12.6666 8.93359 12.5332C10.1336 9.73323 12.9336 7.73323 16.2669 7.73323C18.8003 7.73323 20.4003 8.7999 21.4669 9.73323L25.2003 5.9999C22.9336 3.9999 19.8669 2.66656 16.2669 2.66656C11.0669 2.66656 6.53359 5.5999 4.40026 9.9999C3.46693 11.8666 2.93359 13.8666 2.93359 15.9999C2.93359 18.1332 3.46693 20.1332 4.40026 21.9999C6.53359 26.3999 11.0669 29.3332 16.2669 29.3332C19.8669 29.3332 22.9336 28.1332 25.0669 26.1332C27.6003 23.8666 29.0669 20.3999 29.0669 16.2666C29.0669 15.1999 28.9336 14.3999 28.8003 13.5999Z" stroke="white" stroke-opacity="0.87" stroke-width="1.5" stroke-miterlimit="10" stroke-linecap="round" stroke-linejoin="round"/>
</svg>
