<svg width="40" height="40" viewBox="0 0 40 40" fill="none" xmlns="http://www.w3.org/2000/svg">
<path d="M0 0H32C36.4183 0 40 3.58172 40 8V40H0V0Z" fill="url(#paint0_linear_207_2882)" fill-opacity="0.24"/>
<path fill-rule="evenodd" clip-rule="evenodd" d="M22.6708 10.0128H15.4254C13.1831 10.0128 11.25 11.8304 11.25 14.0738V25.7408C11.25 28.1105 13.0567 30 15.4254 30H24.1258C26.3692 30 28.1868 27.9853 28.1868 25.7408V15.7586L22.6708 10.0128Z" stroke="url(#paint1_linear_207_2882)" stroke-width="1.5" stroke-linecap="round" stroke-linejoin="round"/>
<path d="M22.3846 10V13.168C22.3846 14.7145 23.636 15.9691 25.1813 15.9723C26.6156 15.9756 28.0825 15.9767 28.1816 15.9701" stroke="url(#paint2_linear_207_2882)" stroke-width="1.5" stroke-linecap="round" stroke-linejoin="round"/>
<path opacity="0.4" d="M22.1779 23.9481H16.3003" stroke="url(#paint3_linear_207_2882)" stroke-width="1.5" stroke-linecap="round" stroke-linejoin="round"/>
<path opacity="0.4" d="M19.9546 18.5548H16.2997" stroke="url(#paint4_linear_207_2882)" stroke-width="1.5" stroke-linecap="round" stroke-linejoin="round"/>
<path d="M4 0.5H32C36.1421 0.5 39.5 3.85786 39.5 8V36C39.5 37.933 37.933 39.5 36 39.5H4C2.067 39.5 0.5 37.933 0.5 36V4C0.5 2.067 2.067 0.5 4 0.5Z" stroke="url(#paint5_linear_207_2882)"/>
<defs>
<linearGradient id="paint0_linear_207_2882" x1="-0.416667" y1="32" x2="34.2181" y2="31.9256" gradientUnits="userSpaceOnUse">
<stop stop-color="#28CD41"/>
<stop offset="1" stop-color="#D9ED92"/>
</linearGradient>
<linearGradient id="paint1_linear_207_2882" x1="11.0736" y1="26.0026" x2="25.7387" y2="25.9759" gradientUnits="userSpaceOnUse">
<stop stop-color="#28CD41"/>
<stop offset="1" stop-color="#D9ED92"/>
</linearGradient>
<linearGradient id="paint2_linear_207_2882" x1="22.3243" y1="14.7799" x2="27.3437" y2="14.7695" gradientUnits="userSpaceOnUse">
<stop stop-color="#28CD41"/>
<stop offset="1" stop-color="#D9ED92"/>
</linearGradient>
<linearGradient id="paint3_linear_207_2882" x1="16.2391" y1="24.2748" x2="21.3276" y2="24.2158" gradientUnits="userSpaceOnUse">
<stop stop-color="#28CD41"/>
<stop offset="1" stop-color="#D9ED92"/>
</linearGradient>
<linearGradient id="paint4_linear_207_2882" x1="16.2617" y1="18.8815" x2="19.4261" y2="18.8587" gradientUnits="userSpaceOnUse">
<stop stop-color="#28CD41"/>
<stop offset="1" stop-color="#D9ED92"/>
</linearGradient>
<linearGradient id="paint5_linear_207_2882" x1="-0.416667" y1="32" x2="34.2181" y2="31.9256" gradientUnits="userSpaceOnUse">
<stop stop-color="#28CD41"/>
<stop offset="1" stop-color="#D9ED92"/>
</linearGradient>
</defs>
</svg>
