<svg width="40" height="40" viewBox="0 0 40 40" fill="none" xmlns="http://www.w3.org/2000/svg">
<path d="M0 0H32C36.4183 0 40 3.58172 40 8V40H0V0Z" fill="url(#paint0_linear_206_1866)" fill-opacity="0.24"/>
<path opacity="0.4" fill-rule="evenodd" clip-rule="evenodd" d="M13.5 18.9979C13.5 18.5837 13.1642 18.2479 12.75 18.2479C12.3358 18.2479 12 18.5837 12 18.9979C12 23.2637 15.2638 26.7661 19.4308 27.1446V29.2489C19.4308 29.6631 19.7666 29.9989 20.1808 29.9989C20.5951 29.9989 20.9308 29.6631 20.9308 29.2489V27.1446C25.0976 26.7658 28.3622 23.2636 28.3622 18.9979C28.3622 18.5837 28.0264 18.2479 27.6122 18.2479C27.1979 18.2479 26.8622 18.5837 26.8622 18.9979C26.8622 22.6879 23.8708 25.6785 20.1806 25.6785C16.4905 25.6785 13.5 22.688 13.5 18.9979Z" fill="#28CD41"/>
<path fill-rule="evenodd" clip-rule="evenodd" d="M20.0542 11.5C18.4402 11.5 17.131 12.8092 17.131 14.4232V18.9902C17.131 20.6051 18.44 21.9134 20.0542 21.9134H20.3075C21.9225 21.9134 23.2308 20.6052 23.2308 18.9902V18.861H21.1151C20.7009 18.861 20.3651 18.5252 20.3651 18.111C20.3651 17.6968 20.7009 17.361 21.1151 17.361H23.2308V15.678H22.0708C21.6566 15.678 21.3208 15.3422 21.3208 14.928C21.3208 14.5138 21.6566 14.178 22.0708 14.178H23.2206C23.0961 12.6785 21.8398 11.5 20.3075 11.5H20.0542ZM15.631 14.4232C15.631 11.9808 17.6117 10 20.0542 10H20.3075C22.7511 10 24.7308 11.9809 24.7308 14.4232V18.9902C24.7308 21.4336 22.751 23.4134 20.3075 23.4134H20.0542C17.6119 23.4134 15.631 21.4337 15.631 18.9902V14.4232Z" fill="#28CD41"/>
<path d="M0.5 4C0.5 2.067 2.067 0.5 4 0.5H32C36.1421 0.5 39.5 3.85786 39.5 8V36C39.5 37.933 37.933 39.5 36 39.5H4C2.067 39.5 0.5 37.933 0.5 36V4Z" stroke="url(#paint1_linear_206_1866)"/>
<defs>
<linearGradient id="paint0_linear_206_1866" x1="-0.416667" y1="32" x2="34.2181" y2="31.9256" gradientUnits="userSpaceOnUse">
<stop stop-color="#28CD41"/>
<stop offset="1" stop-color="#D9ED92"/>
</linearGradient>
<linearGradient id="paint1_linear_206_1866" x1="-0.416667" y1="32" x2="34.2181" y2="31.9256" gradientUnits="userSpaceOnUse">
<stop stop-color="#28CD41"/>
<stop offset="1" stop-color="#D9ED92"/>
</linearGradient>
</defs>
</svg>
