<svg width="42" height="42" viewBox="0 0 42 42" fill="none" xmlns="http://www.w3.org/2000/svg">
<g filter="url(#filter0_f_1_374)">
<path d="M10 28V14C10 11.7909 11.7909 10 14 10H28C30.2091 10 32 11.7909 32 14V28C32 30.2091 30.2091 32 28 32H14C11.7909 32 10 30.2091 10 28Z" stroke="#FFD166" stroke-width="2"/>
</g>
<g filter="url(#filter1_d_1_374)">
<path d="M10 28V14C10 11.7909 11.7909 10 14 10H28C30.2091 10 32 11.7909 32 14V28C32 30.2091 30.2091 32 28 32H14C11.7909 32 10 30.2091 10 28Z" stroke="#FFD166" stroke-width="2" shape-rendering="crispEdges"/>
</g>
<defs>
<filter id="filter0_f_1_374" x="0" y="0" width="42" height="42" filterUnits="userSpaceOnUse" color-interpolation-filters="sRGB">
<feFlood flood-opacity="0" result="BackgroundImageFix"/>
<feBlend mode="normal" in="SourceGraphic" in2="BackgroundImageFix" result="shape"/>
<feGaussianBlur stdDeviation="4.5" result="effect1_foregroundBlur_1_374"/>
</filter>
<filter id="filter1_d_1_374" x="5" y="9" width="32" height="32" filterUnits="userSpaceOnUse" color-interpolation-filters="sRGB">
<feFlood flood-opacity="0" result="BackgroundImageFix"/>
<feColorMatrix in="SourceAlpha" type="matrix" values="0 0 0 0 0 0 0 0 0 0 0 0 0 0 0 0 0 0 127 0" result="hardAlpha"/>
<feOffset dy="4"/>
<feGaussianBlur stdDeviation="2"/>
<feComposite in2="hardAlpha" operator="out"/>
<feColorMatrix type="matrix" values="0 0 0 0 0 0 0 0 0 0 0 0 0 0 0 0 0 0 0.25 0"/>
<feBlend mode="normal" in2="BackgroundImageFix" result="effect1_dropShadow_1_374"/>
<feBlend mode="normal" in="SourceGraphic" in2="effect1_dropShadow_1_374" result="shape"/>
</filter>
</defs>
</svg>
