<svg width="64" height="64" viewBox="0 0 64 64" fill="none" xmlns="http://www.w3.org/2000/svg">
<path d="M0 0H56C60.4183 0 64 3.58172 64 8V64H0V0Z" fill="url(#paint0_linear_206_1643)" fill-opacity="0.24"/>
<path fill-rule="evenodd" clip-rule="evenodd" d="M43.7509 20.0213C44.4909 20.2804 44.9854 20.9781 44.9854 21.7622V33.2325C44.9854 36.4383 43.8203 39.4985 41.7627 41.8694C40.7279 43.0634 39.4188 43.9931 38.0284 44.745L32.0029 48L25.9672 44.7434C24.5751 43.9914 23.2643 43.0634 22.2279 41.8677C20.1685 39.4968 19 36.4349 19 33.2257V21.7622C19 20.9781 19.4945 20.2804 20.2346 20.0213L31.3814 16.1042C31.7776 15.9653 32.2095 15.9653 32.6041 16.1042L43.7509 20.0213Z" stroke="url(#paint1_linear_206_1643)" stroke-width="1.5" stroke-linecap="round" stroke-linejoin="round"/>
<path opacity="0.4" d="M27.5905 31.5269L30.7946 34.7327L37.396 28.1313" stroke="url(#paint2_linear_206_1643)" stroke-width="1.5" stroke-linecap="round" stroke-linejoin="round"/>
<defs>
<linearGradient id="paint0_linear_206_1643" x1="-0.666667" y1="51.2" x2="54.749" y2="51.0809" gradientUnits="userSpaceOnUse">
<stop stop-color="#28CD41"/>
<stop offset="1" stop-color="#D9ED92"/>
</linearGradient>
<linearGradient id="paint1_linear_206_1643" x1="18.7293" y1="41.6" x2="41.2293" y2="41.5607" gradientUnits="userSpaceOnUse">
<stop stop-color="#28CD41"/>
<stop offset="1" stop-color="#D9ED92"/>
</linearGradient>
<linearGradient id="paint2_linear_206_1643" x1="27.4883" y1="33.4124" x2="35.9786" y2="33.3853" gradientUnits="userSpaceOnUse">
<stop stop-color="#28CD41"/>
<stop offset="1" stop-color="#D9ED92"/>
</linearGradient>
</defs>
</svg>
