<svg width="40" height="40" viewBox="0 0 40 40" fill="none" xmlns="http://www.w3.org/2000/svg">
<path d="M0 0H32C36.4183 0 40 3.58172 40 8V40H0V0Z" fill="url(#paint0_linear_207_2822)" fill-opacity="0.24"/>
<path fill-rule="evenodd" clip-rule="evenodd" d="M17.705 23.6169C13.5493 23.6169 10 24.2521 10 26.797C10 29.3408 13.5266 30 17.705 30C21.8608 30 25.4101 29.3638 25.4101 26.82C25.4101 24.2761 21.8835 23.6169 17.705 23.6169Z" stroke="url(#paint1_linear_207_2822)" stroke-width="1.5" stroke-linecap="round" stroke-linejoin="round"/>
<path opacity="0.4" fill-rule="evenodd" clip-rule="evenodd" d="M17.705 19.9873C20.4467 19.9873 22.6435 17.7648 22.6435 14.9936C22.6435 12.2213 20.4467 10 17.705 10C14.9644 10 12.7665 12.2213 12.7665 14.9936C12.7665 17.7648 14.9644 19.9873 17.705 19.9873Z" stroke="url(#paint2_linear_207_2822)" stroke-width="1.5" stroke-linecap="round" stroke-linejoin="round"/>
<path d="M27.7881 16.4707V20.8543" stroke="url(#paint3_linear_207_2822)" stroke-width="1.5" stroke-linecap="round" stroke-linejoin="round"/>
<path d="M30 18.6624H25.5782" stroke="url(#paint4_linear_207_2822)" stroke-width="1.5" stroke-linecap="round" stroke-linejoin="round"/>
<path d="M0.5 4C0.5 2.067 2.067 0.5 4 0.5H32C36.1421 0.5 39.5 3.85786 39.5 8V36C39.5 37.933 37.933 39.5 36 39.5H4C2.067 39.5 0.5 37.933 0.5 36V4Z" stroke="url(#paint5_linear_207_2822)"/>
<defs>
<linearGradient id="paint0_linear_207_2822" x1="-0.416667" y1="32" x2="34.2181" y2="31.9256" gradientUnits="userSpaceOnUse">
<stop stop-color="#28CD41"/>
<stop offset="1" stop-color="#D9ED92"/>
</linearGradient>
<linearGradient id="paint1_linear_207_2822" x1="9.83948" y1="28.7234" x2="23.1823" y2="28.6542" gradientUnits="userSpaceOnUse">
<stop stop-color="#28CD41"/>
<stop offset="1" stop-color="#D9ED92"/>
</linearGradient>
<linearGradient id="paint2_linear_207_2822" x1="12.6637" y1="17.9898" x2="21.2158" y2="17.9716" gradientUnits="userSpaceOnUse">
<stop stop-color="#28CD41"/>
<stop offset="1" stop-color="#D9ED92"/>
</linearGradient>
<linearGradient id="paint3_linear_207_2822" x1="27.2363" y1="19.9776" x2="28.1724" y2="19.9771" gradientUnits="userSpaceOnUse">
<stop stop-color="#28CD41"/>
<stop offset="1" stop-color="#D9ED92"/>
</linearGradient>
<linearGradient id="paint4_linear_207_2822" x1="25.5322" y1="18.9904" x2="29.3605" y2="18.9571" gradientUnits="userSpaceOnUse">
<stop stop-color="#28CD41"/>
<stop offset="1" stop-color="#D9ED92"/>
</linearGradient>
<linearGradient id="paint5_linear_207_2822" x1="-0.416667" y1="32" x2="34.2181" y2="31.9256" gradientUnits="userSpaceOnUse">
<stop stop-color="#28CD41"/>
<stop offset="1" stop-color="#D9ED92"/>
</linearGradient>
</defs>
</svg>
