<svg width="32" height="32" viewBox="0 0 32 32" fill="none" xmlns="http://www.w3.org/2000/svg">
<path d="M19.333 3.06641C17.9997 3.06641 16.7997 4.13307 16.7997 5.59974V11.7331C16.7997 13.0664 17.8663 14.2664 19.333 14.2664C20.6663 14.2664 21.8663 13.1997 21.8663 11.7331V5.46641C21.8663 4.13307 20.7997 3.06641 19.333 3.06641Z" stroke="white" stroke-opacity="0.87" stroke-width="1.5" stroke-miterlimit="10" stroke-linecap="round" stroke-linejoin="round"/>
<path d="M24.7997 14.1333H26.933C28.133 14.1333 29.0663 13.2 29.0663 12C29.0663 10.8 28.133 9.86664 26.933 9.86664C25.733 9.86664 24.7997 10.8 24.7997 12V14.1333Z" stroke="white" stroke-opacity="0.87" stroke-width="1.5" stroke-miterlimit="10" stroke-linecap="round" stroke-linejoin="round"/>
<path d="M2.66684 12.2663C2.66684 13.5996 3.73351 14.7996 5.20017 14.7996H11.3335C12.6668 14.7996 13.8668 13.733 13.8668 12.2663C13.8668 10.933 12.8002 9.73297 11.3335 9.73297H5.20017C3.73351 9.8663 2.66684 10.933 2.66684 12.2663Z" stroke="white" stroke-opacity="0.87" stroke-width="1.5" stroke-miterlimit="10" stroke-linecap="round" stroke-linejoin="round"/>
<path d="M13.8671 6.7999V4.7999C13.8671 3.5999 12.9338 2.66656 11.7338 2.66656C10.5338 2.66656 9.60043 3.5999 9.60043 4.7999C9.60043 5.9999 10.5338 6.93323 11.7338 6.93323H13.8671V6.7999Z" stroke="white" stroke-opacity="0.87" stroke-width="1.5" stroke-miterlimit="10" stroke-linecap="round" stroke-linejoin="round"/>
<path d="M12.5333 29.0666C13.8667 29.0666 15.0667 28 15.0667 26.5333V20.4C15.0667 19.0666 14 17.8666 12.5333 17.8666C11.2 17.8666 10 18.9333 10 20.4V26.5333C10.1333 27.8666 11.2 29.0666 12.5333 29.0666Z" stroke="white" stroke-opacity="0.87" stroke-width="1.5" stroke-miterlimit="10" stroke-linecap="round" stroke-linejoin="round"/>
<path d="M7.20026 17.8666H5.06693C3.86693 17.8666 2.93359 18.8 2.93359 20C2.93359 21.2 3.86693 22.1333 5.06693 22.1333C6.26693 22.1333 7.20026 21.2 7.20026 20V17.8666Z" stroke="white" stroke-opacity="0.87" stroke-width="1.5" stroke-miterlimit="10" stroke-linecap="round" stroke-linejoin="round"/>
<path d="M29.3328 19.7331C29.3328 18.3998 28.2661 17.1998 26.7995 17.1998H20.6661C19.3328 17.1998 18.1328 18.2664 18.1328 19.7331C18.1328 21.0664 19.1995 22.2664 20.6661 22.2664H26.7995C28.1328 22.2664 29.3328 21.0664 29.3328 19.7331Z" stroke="white" stroke-opacity="0.87" stroke-width="1.5" stroke-miterlimit="10" stroke-linecap="round" stroke-linejoin="round"/>
<path d="M18.1328 25.0664V27.1997C18.1328 28.3997 19.0661 29.3331 20.2661 29.3331C21.4661 29.3331 22.3995 28.3997 22.3995 27.1997C22.3995 25.9997 21.4661 25.0664 20.2661 25.0664H18.1328Z" stroke="white" stroke-opacity="0.87" stroke-width="1.5" stroke-miterlimit="10" stroke-linecap="round" stroke-linejoin="round"/>
</svg>
