<svg width="32" height="32" viewBox="0 0 32 32" fill="none" xmlns="http://www.w3.org/2000/svg">
<path d="M25.333 13.1999V22.3999C25.333 23.4666 24.7997 24.3999 23.8663 24.7999L15.1997 28.9332C14.533 29.1999 13.5997 29.1999 12.933 28.9332L4.26635 24.7999C3.33302 24.3999 2.79968 23.4666 2.79968 22.3999V12.3999C2.79968 11.3332 3.33302 10.3999 4.26635 9.9999L12.933 5.86656C13.5997 5.5999 14.533 5.5999 15.1997 5.86656L18.6663 7.5999C18.6663 7.73323 18.6663 7.86656 18.6663 7.9999C18.6663 10.9332 21.0663 13.3332 23.9997 13.3332C24.533 13.3332 24.933 13.3332 25.333 13.1999Z" stroke="white" stroke-opacity="0.87" stroke-width="1.5" stroke-miterlimit="10" stroke-linejoin="round"/>
<path d="M9.33313 14V18C9.33313 19.4667 10.5331 20.6667 11.9998 20.6667C13.4665 20.6667 14.6665 19.4667 14.6665 18V14" stroke="white" stroke-opacity="0.87" stroke-width="1.5" stroke-miterlimit="10" stroke-linecap="round"/>
<path d="M18.667 14V20.5333" stroke="white" stroke-opacity="0.87" stroke-width="1.5" stroke-miterlimit="10" stroke-linecap="round"/>
<path d="M29.3335 7.9999C29.3335 10.5332 27.6002 12.5332 25.3335 13.1999C24.9335 13.3332 24.5335 13.3332 24.0002 13.3332C21.0669 13.3332 18.6669 10.9332 18.6669 7.9999C18.6669 7.86656 18.6669 7.73323 18.6669 7.5999C18.9335 4.93323 21.2002 2.66656 24.0002 2.66656C26.9335 2.66656 29.3335 5.06656 29.3335 7.9999Z" stroke="white" stroke-opacity="0.87" stroke-width="1.5" stroke-miterlimit="10"/>
<path d="M25.4672 7.86641C25.7339 7.59974 26.0005 7.19974 26.0005 6.79974C26.0005 5.73307 25.2005 5.06641 24.0005 5.06641C22.8005 5.06641 22.0005 5.73307 22.0005 6.79974C22.0005 7.19974 22.1339 7.59974 22.5339 7.86641C22.1339 8.13307 21.8672 8.66641 21.8672 9.19974C21.8672 10.2664 22.6672 10.9331 24.0005 10.9331C25.3339 10.9331 26.1339 10.2664 26.1339 9.19974C26.1339 8.66641 25.8672 8.13307 25.4672 7.86641ZM24.0005 7.33307C23.6005 7.33307 23.4672 7.19974 23.4672 6.79974C23.4672 6.39974 23.7339 6.26641 24.0005 6.26641C24.2672 6.26641 24.5339 6.39974 24.5339 6.79974C24.5339 7.19974 24.4005 7.33307 24.0005 7.33307ZM24.0005 8.39974C24.4005 8.39974 24.8005 8.53307 24.8005 9.06641C24.8005 9.46641 24.5339 9.73307 24.0005 9.73307C23.4672 9.73307 23.2005 9.46641 23.2005 9.06641C23.2005 8.53307 23.8672 8.39974 24.0005 8.39974Z" fill="white" fill-opacity="0.87"/>
</svg>
