<svg width="13" height="9" viewBox="0 0 13 9" fill="none" xmlns="http://www.w3.org/2000/svg">
<path d="M1 4C0.723858 4 0.5 4.22386 0.5 4.5C0.5 4.77614 0.723858 5 1 5V4ZM12.6673 4.85355C12.8625 4.65829 12.8625 4.34171 12.6673 4.14645L9.48528 0.964466C9.29002 0.769204 8.97344 0.769204 8.77817 0.964466C8.58291 1.15973 8.58291 1.47631 8.77817 1.67157L11.6066 4.5L8.77817 7.32843C8.58291 7.52369 8.58291 7.84027 8.77817 8.03553C8.97344 8.2308 9.29002 8.2308 9.48528 8.03553L12.6673 4.85355ZM1 5L12.3137 5V4L1 4V5Z" fill="white" fill-opacity="0.87"/>
</svg>
